{
  "accessors": [
    {
      "bufferView": 2,
      "componentType": 5126,
      "count": 894,
      "max": [
        0.9711925387382507,
        2.5490787029266357,
        1.21748685836792
      ],
      "min": [
        -0.9711924195289612,
        -0.4459366798400879,
        -1.21748685836792
      ],
      "type": "VEC3"
    },
    {
      "bufferView": 2,
      "byteOffset": 10728,
      "componentType": 5126,
      "count": 894,
      "max": [
        1.0,
        1.0,
        0.9990947246551514
      ],
      "min": [
        -1.0,
        -1.0,
        -0.9990947246551514
      ],
      "type": "VEC3"
    },
    {
      "bufferView": 1,
      "componentType": 5126,
      "count": 894,
      "max": [
        0.9528504610061646,
        1.0
      ],
      "min": [
        0.0,
        0.0
      ],
      "type": "VEC2"
    },
    {
      "bufferView": 0,
      "componentType": 5125,
      "count": 4572,
      "type": "SCALAR"
    },
    {
      "bufferView": 2,
      "byteOffset": 21456,
      "componentType": 5126,
      "count": 3068,
      "max": [
        0.5484061241149902,
        -0.7548362612724304,
        0.5618640184402466
      ],
      "min": [
        -0.5693395137786865,
        -2.4972116947174072,
        -0.5590413808822632
      ],
      "type": "VEC3"
    },
    {
      "bufferView": 2,
      "byteOffset": 58272,
      "componentType": 5126,
      "count": 3068,
      "max": [
        0.9988009333610535,
        0.43572595715522766,
        0.9991532564163208
      ],
      "min": [
        -0.997507631778717,
        -1.0,
        -0.9991532564163208
      ],
      "type": "VEC3"
    },
    {
      "bufferView": 1,
      "byteOffset": 7152,
      "componentType": 5126,
      "count": 3068,
      "max": [
        0.941158652305603,
        0.9999998807907104
      ],
      "min": [
        0.0,
        0.0
      ],
      "type": "VEC2"
    },
    {
      "bufferView": 0,
      "byteOffset": 18288,
      "componentType": 5125,
      "count": 15744,
      "type": "SCALAR"
    },
    {
      "bufferView": 2,
      "byteOffset": 95088,
      "componentType": 5126,
      "count": 266,
      "max": [
        0.07313864678144455,
        -0.6495463848114014,
        -1.030192255973816
      ],
      "min": [
        -0.09451315551996231,
        -0.8171982765197754,
        -1.317766785621643
      ],
      "type": "VEC3"
    },
    {
      "bufferView": 2,
      "byteOffset": 98280,
      "componentType": 5126,
      "count": 266,
      "max": [
        0.9969671368598938,
        0.9976457357406616,
        -0.0512424111366272
      ],
      "min": [
        -0.9980695247650146,
        -0.9978368878364563,
        -1.0
      ],
      "type": "VEC3"
    },
    {
      "bufferView": 1,
      "byteOffset": 31696,
      "componentType": 5126,
      "count": 266,
      "max": [
        0.4956664443016052,
        0.5753883123397827
      ],
      "min": [
        0.3971136808395386,
        0.5290927886962891
      ],
      "type": "VEC2"
    },
    {
      "bufferView": 0,
      "byteOffset": 81264,
      "componentType": 5125,
      "count": 1392,
      "type": "SCALAR"
    },
    {
      "bufferView": 2,
      "byteOffset": 101472,
      "componentType": 5126,
      "count": 2886,
      "max": [
        0.6176239252090454,
        -0.4375222325325012,
        1.260702133178711
      ],
      "min": [
        -0.6495245099067688,
        -1.7323799133300781,
        -1.260702133178711
      ],
      "type": "VEC3"
    },
    {
      "bufferView": 2,
      "byteOffset": 136104,
      "componentType": 5126,
      "count": 2886,
      "max": [
        0.9998372793197632,
        1.0,
        1.0
      ],
      "min": [
        -0.9998384714126587,
        -1.0,
        -1.0
      ],
      "type": "VEC3"
    },
    {
      "bufferView": 1,
      "byteOffset": 33824,
      "componentType": 5126,
      "count": 2886,
      "max": [
        1.0,
        0.5986523032188416
      ],
      "min": [
        0.0,
        0.0
      ],
      "type": "VEC2"
    },
    {
      "bufferView": 0,
      "byteOffset": 86832,
      "componentType": 5125,
      "count": 15552,
      "type": "SCALAR"
    },
    {
      "bufferView": 2,
      "byteOffset": 170736,
      "componentType": 5126,
      "count": 284,
      "max": [
        0.0753292441368103,
        -0.647358775138855,
        1.317766547203064
      ],
      "min": [
        -0.0966876745223999,
        -0.81937575340271,
        1.0137231349945068
      ],
      "type": "VEC3"
    },
    {
      "bufferView": 2,
      "byteOffset": 174144,
      "componentType": 5126,
      "count": 284,
      "max": [
        0.9969671368598938,
        0.9976457357406616,
        1.0
      ],
      "min": [
        -0.9980695247650146,
        -0.9978368878364563,
        0.0512424111366272
      ],
      "type": "VEC3"
    },
    {
      "bufferView": 1,
      "byteOffset": 56912,
      "componentType": 5126,
      "count": 284,
      "max": [
        0.3971136808395386,
        0.5762489438056946
      ],
      "min": [
        0.29322463274002075,
        0.5290927886962891
      ],
      "type": "VEC2"
    },
    {
      "bufferView": 0,
      "byteOffset": 149040,
      "componentType": 5125,
      "count": 1488,
      "type": "SCALAR"
    },
    {
      "bufferView": 2,
      "byteOffset": 177552,
      "componentType": 5126,
      "count": 737,
      "max": [
        -0.19660794734954834,
        -0.8766018152236938,
        -0.16043052077293396
      ],
      "min": [
        -1.5632543563842773,
        -1.928005576133728,
        -0.9639357328414917
      ],
      "type": "VEC3"
    },
    {
      "bufferView": 2,
      "byteOffset": 186396,
      "componentType": 5126,
      "count": 737,
      "max": [
        0.9831693768501282,
        0.9937475323677063,
        0.9994845390319824
      ],
      "min": [
        -0.9935712814331055,
        -0.9979948401451111,
        -0.9999861717224121
      ],
      "type": "VEC3"
    },
    {
      "bufferView": 1,
      "byteOffset": 59184,
      "componentType": 5126,
      "count": 737,
      "max": [
        1.0000001192092896,
        0.8429080247879028
      ],
      "min": [
        0.0,
        0.0
      ],
      "type": "VEC2"
    },
    {
      "bufferView": 0,
      "byteOffset": 154992,
      "componentType": 5125,
      "count": 2880,
      "type": "SCALAR"
    }
  ],
  "asset": {
    "extras": {
      "author": "Freemodels (https://sketchfab.com/vivaanarora9)",
      "license": "CC-BY-4.0 (http://creativecommons.org/licenses/by/4.0/)",
      "source": "https://sketchfab.com/3d-models/bob-735a4bb2afda4318ab7f7d69005f53ab",
      "title": "Bob"
    },
    "generator": "Sketchfab-13.33.0",
    "version": "2.0"
  },
  "bufferViews": [
    {
      "buffer": 0,
      "byteLength": 166512,
      "name": "floatBufferViews",
      "target": 34963
    },
    {
      "buffer": 0,
      "byteLength": 65080,
      "byteOffset": 166512,
      "byteStride": 8,
      "name": "floatBufferViews",
      "target": 34962
    },
    {
      "buffer": 0,
      "byteLength": 195240,
      "byteOffset": 231592,
      "byteStride": 12,
      "name": "floatBufferViews",
      "target": 34962
    }
  ],
  "buffers": [
    {
      "byteLength": 426832,
      "uri": "scene.bin"
    }
  ],
  "extensionsRequired": [
    "KHR_materials_pbrSpecularGlossiness"
  ],
  "extensionsUsed": [
    "KHR_materials_pbrSpecularGlossiness"
  ],
  "images": [
    {
      "uri": "textures/bob_Material_diffuse.png"
    },
    {
      "uri": "textures/bob_Material.002_diffuse.png"
    },
    {
      "uri": "textures/bob_Material.005_diffuse.png"
    },
    {
      "uri": "textures/bob_Material.001_diffuse.png"
    }
  ],
  "materials": [
    {
      "doubleSided": true,
      "extensions": {
        "KHR_materials_pbrSpecularGlossiness": {
          "diffuseFactor": [
            1.0,
            1.0,
            1.0,
            1.0
          ],
          "diffuseTexture": {
            "index": 0
          },
          "glossinessFactor": 0.6,
          "specularFactor": [
            0.0,
            0.0,
            0.0
          ]
        }
      },
      "name": "Material"
    },
    {
      "doubleSided": true,
      "extensions": {
        "KHR_materials_pbrSpecularGlossiness": {
          "diffuseFactor": [
            1.0,
            1.0,
            1.0,
            1.0
          ],
          "diffuseTexture": {
            "index": 1
          },
          "glossinessFactor": 0.5,
          "specularFactor": [
            0.0,
            0.0,
            0.0
          ]
        }
      },
      "name": "Material.002"
    },
    {
      "doubleSided": true,
      "extensions": {
        "KHR_materials_pbrSpecularGlossiness": {
          "diffuseFactor": [
            0.693872,
            0.168269,
            0.775822,
            1.0
          ],
          "glossinessFactor": 0.5,
          "specularFactor": [
            0.0,
            0.0,
            0.0
          ]
        }
      },
      "name": "Material.003"
    },
    {
      "doubleSided": true,
      "extensions": {
        "KHR_materials_pbrSpecularGlossiness": {
          "diffuseFactor": [
            1.0,
            0.066626,
            0.158961,
            1.0
          ],
          "glossinessFactor": 0.5,
          "specularFactor": [
            0.0,
            0.0,
            0.0
          ]
        }
      },
      "name": "Material.004"
    },
    {
      "doubleSided": true,
      "extensions": {
        "KHR_materials_pbrSpecularGlossiness": {
          "diffuseFactor": [
            1.0,
            1.0,
            1.0,
            1.0
          ],
          "diffuseTexture": {
            "index": 2
          },
          "glossinessFactor": 0.5,
          "specularFactor": [
            0.0,
            0.0,
            0.0
          ]
        }
      },
      "name": "Material.005"
    },
    {
      "doubleSided": true,
      "extensions": {
        "KHR_materials_pbrSpecularGlossiness": {
          "diffuseFactor": [
            1.0,
            1.0,
            1.0,
            1.0
          ],
          "diffuseTexture": {
            "index": 3
          },
          "glossinessFactor": 1.0,
          "specularFactor": [
            0.0,
            0.0,
            0.0
          ]
        }
      },
      "name": "Material.001"
    }
  ],
  "meshes": [
    {
      "name": "Object_0",
      "primitives": [
        {
          "attributes": {
            "NORMAL": 1,
            "POSITION": 0,
            "TEXCOORD_0": 2
          },
          "indices": 3,
          "material": 0,
          "mode": 4
        }
      ]
    },
    {
      "name": "Object_1",
      "primitives": [
        {
          "attributes": {
            "NORMAL": 5,
            "POSITION": 4,
            "TEXCOORD_0": 6
          },
          "indices": 7,
          "material": 1,
          "mode": 4
        }
      ]
    },
    {
      "name": "Object_2",
      "primitives": [
        {
          "attributes": {
            "NORMAL": 9,
            "POSITION": 8,
            "TEXCOORD_0": 10
          },
          "indices": 11,
          "material": 2,
          "mode": 4
        }
      ]
    },
    {
      "name": "Object_3",
      "primitives": [
        {
          "attributes": {
            "NORMAL": 13,
            "POSITION": 12,
            "TEXCOORD_0": 14
          },
          "indices": 15,
          "material": 3,
          "mode": 4
        }
      ]
    },
    {
      "name": "Object_4",
      "primitives": [
        {
          "attributes": {
            "NORMAL": 17,
            "POSITION": 16,
            "TEXCOORD_0": 18
          },
          "indices": 19,
          "material": 4,
          "mode": 4
        }
      ]
    },
    {
      "name": "Object_5",
      "primitives": [
        {
          "attributes": {
            "NORMAL": 21,
            "POSITION": 20,
            "TEXCOORD_0": 22
          },
          "indices": 23,
          "material": 5,
          "mode": 4
        }
      ]
    }
  ],
  "nodes": [
    {
      "children": [
        1
      ],
      "matrix": [
        1.0,
        0.0,
        0.0,
        0.0,
        0.0,
        2.220446049250313e-16,
        -1.0,
        0.0,
        0.0,
        1.0,
        2.220446049250313e-16,
        0.0,
        0.0,
        0.0,
        0.0,
        1.0
      ],
      "name": "Sketchfab_model"
    },
    {
      "children": [
        2
      ],
      "name": "root"
    },
    {
      "children": [
        3
      ],
      "matrix": [
        1.0,
        0.0,
        0.0,
        0.0,
        0.0,
        2.220446049250313e-16,
        1.0,
        0.0,
        0.0,
        -1.0,
        2.220446049250313e-16,
        0.0,
        0.0,
        0.0,
        0.0,
        1.0
      ],
      "name": "GLTF_SceneRootNode"
    },
    {
      "children": [
        4,
        5,
        7,
        11
      ],
      "name": "Head_5"
    },
    {
      "mesh": 0,
      "name": "Object_4"
    },
    {
      "children": [
        6
      ],
      "name": "Feet_2"
    },
    {
      "mesh": 1,
      "name": "Object_6"
    },
    {
      "children": [
        8,
        9,
        10
      ],
      "name": "Shirt and hands_3"
    },
    {
      "mesh": 2,
      "name": "Object_8"
    },
    {
      "mesh": 3,
      "name": "Object_9"
    },
    {
      "mesh": 4,
      "name": "Object_10"
    },
    {
      "children": [
        12
      ],
      "name": "Tail_4"
    },
    {
      "mesh": 5,
      "name": "Object_12"
    }
  ],
  "samplers": [
    {
      "magFilter": 9729,
      "minFilter": 9987,
      "wrapS": 10497,
      "wrapT": 10497
    }
  ],
  "scene": 0,
  "scenes": [
    {
      "name": "Sketchfab_Scene",
      "nodes": [
        0
      ]
    }
  ],
  "textures": [
    {
      "sampler": 0,
      "source": 0
    },
    {
      "sampler": 0,
      "source": 1
    },
    {
      "sampler": 0,
      "source": 2
    },
    {
      "sampler": 0,
      "source": 3
    }
  ]
}
